<?xml version="1.0" encoding="UTF-8"?>
<svg id="Layer 1" data-name="Layer 1" xmlns="http://www.w3.org/2000/svg" viewBox="0 0 1259.06 939.51">
  <path id="path1" d="m530.06.4c114.3-1.5,227.8,15.4,338.7,41.7,40.6,12.2,59.4,61,87.9,89.9,17.7,28.5,103.8,115.4,91.4,142.1-32.1,88.1-74.6,172.2-124,251.8-98.6,161.7-234.4,296.7-385.5,409.6-15.6,17.8-55.2-28.9-71.3-37.1-79.5-61-153.6-128.8-219-204.8-92.4-107.5-167.9-229.8-223.4-360.3-5.9-23-33.9-58.5-21.9-80.1,42.8-66.6,95.5-125.8,145.6-186.8,8.6-11,18.9-20.2,33-22.9C295.56,15.2,412.46-.2,530.06,0v.4h0Zm-130.8,539.9c70.24-.92,140.48-1.4,210.73-1.44,68.36-.04,136.72.34,205.07,1.14-7.36,11.36-13.89,20.82-19,28-11.19,15.74-14.97,19.81-20.7,23-9.39,5.22-19.11,5.33-25.2,4.8-1.5,9.8,2.2,27.7-3.3,35-35.1,35.2-70.4,70.3-105.4,105.6-12.3,10-63-2.8-75.7,6-5.3,7.6-16.8-2.1-10.2-8.7,2.8-3,6.9-3.2,9.6.2,3.8,4.8,9.6,2.5,14.7,2.9,17.2-2.5,48.1,5.5,61.1-4.5,33.6-34.4,68.1-68.1,102.1-102.2,6.7-9.3,2.5-23.2,2.8-34.3-9.2.3-17.1-.9-26.3.7-1.6,11.4,3.7,25.3-3.1,34.9-29,29.1-58.3,58-87.2,87.2-3,3-5.8,4.3-10,4.3-31.1,0-62.3-.4-93.5.1,15.8,23,44.4,37.7,56.4,62.1.1,11.6-.7,22.6.4,34.2,25.7-18.4,19.6-22.1,20-50.7-4-2.9-6.8-8.3-2.4-12.1,8.7-6.2,5.9,11.9,5.9,11.9v29.6c43.55-24.2,234.57-240.5,254.83-292.2-17.04-.4-34.07.2-51.81-.3,29.23-46.2,16.83-39.2,71.47-39,.6,2.6,1.01,4.8,1.71,7.9,9.17-14.8,17.64-29.8,26.51-44.8,4.44-35,.3-71.7,1.71-107.2-1.51-10.2-13.31-15.1-19.56-23.1-4.54,1.5-9.98-1.8-10.08-6.5,1.61-12.4,17.24-6.6,14.11,4.7,6.15,8.6,18.85,14,18.75,25.5-.1,31.8-.1,64.1-.1,95.8,23.59-32.5,10.69-74.6,13.81-112.1-1.31-12.4-20.16-16.7-20.97-29.3-.91-20.5,7.86-56.1-24.09-52.8,1.31,28-14.11,8.1-12.2,28.8-.1,5.7-6.35,8.4-5.14,14.1.2,3.4.1,8.5-4.03,9.3-7.36,2.1-12.4-2.1-11.19-10.2-1.61-10.8-6.65-5.6-5.14-23.1h-12.3c1.61,11.1-2.22,13.4-4.74,22.1.3,5.7-.3,12.1-7.56,11.6-7.66.7-8.27-5.8-8.06-11.7-2.92-10.8-6.15-3.8-5.04-21h-12.2c2.12,20.3-6.15,12.2-4.94,28.7-.71,7.5-15.12,7.6-15.52-.2.81-10.2-7.16-17.7-4.94-28.4-19.56-4.4-7.76,7.9-15.22,17.2-4.33,4.6,1.11,13.5-5.85,16.3-3.12,1.3-8.57.3-10.38-2-3.53-4.8.5-11.4-4.13-15.9-2.52-4-1.71-10.6-2.22-15.1-8.57-2.8-12.9-4.5-12.5-14.1,0-17.9-.1-35.9-.1-53.8-1.1-8.4,4.2-13.9,12.81-13.2-1.4-19.5,2.2-11.4,4.61-23.1-.5-5,.4-10.9,6.51-11.1,8.01-1.3,9.71,5.1,9.11,11.7,2.7,10.8,6.41,6.1,5.01,22.3,4.81-.1,7.51.4,12.01-.6-1-10.9.9-12.4,4.81-21.4.3-4-1-9.4,3.6-11.4,8.21-4,13.42,3.1,12.01,11,2,10,6.31,6.8,4.71,21.8,19.12,4.6,6.81-8.1,15.12-16.3,4.41-5.5-1.4-18.2,9.71-17.2,7.21-.5,8.51,5.1,8.01,11.2,1.3,10.1,6.51,7.3,4.71,22.6h12.11c-2.2-12.6,5.21-16.5,5.01-27.5.9-9.3,16.52-7.8,15.12,2.1-1.9,6.9,5.51,9.6,5.11,15.9.6,3.2-1.8,9.3,1.9,10.1,29.53,8.3-20.02,28.1,47.45,21.1-19.62-20.8-50.46-77.7-74.28-84.6-91.5-23.2-185.91-38.3-280.32-39.3.2,9.5-.2,19.8.1,37.6-1,9.5-12.21,14.6-17.72,21.9-49.96,47.8-28.53,44.4-99.01,44,2.6,5.6,2.2,13.7,6.41,16.4,19.02-1.6,40.45,3.5,58.27-2.2,52.16-50.2,30.73-47.3,105.12-46.5,5.01.4,6.01.1,7.31-4.9,6.71-11.7,5.01-39.9,23.03-37.7,22.93,1.6,45.85,4,68.48,8.1,18.32-3.7-33.74,113-35.44,128.5-35.34,96.6-64.27,199.2-103.22,292.6-13.22-41.8-30.33-84.2-39.14-126.6,23.23-72.2,47.35-144.2,70.28-216.6-38.74-4.5-35.14,1.4-61.07,26.2,2,5.2.5,11.3-5.61,11.6-9.01.8-10.31-13.9-.5-13.4,3.3.1,5.21-1.4,7.21-3.4,24.53-24.5,19.72-26.3,53.16-25.5,12.31.6,7.41-.5,13.11-15-52.06-1.8-41.95-6.5-78.09,30.2-4,3.8,0,13.1-8.61,12.5-8.71-.4-8.01-13.7.8-13.2,13.01-4,22.13-21.2,33.34-29.7,13.72-9.2,33.84-1.2,49.86-3.9,7.41.2,6.01-11,9.01-16.3-72.78-1.5-55.66-6.6-106.02,44.5-7.41,8.2-59.57,2-61.97,3.9,3.5,6.6,1.9,19.2,11.41,17,16.12,1.8,35.04-3.9,49.66,2.7,11.31,15.6,44.15,34.6,44.05,53,1.3,10.7-4,26.2,2.8,33.9,10.81,15.1-20.22,14.1-8.61,0,5.91-9.9.6-23.9,2.5-35.3-2.9-17.1-31.24-33.8-42.25-48.6-1.9-2-4-2.5-6.61-2.5-15.52.4-30.73-.6-46.25.5,3.4,6.7,1.7,20.5,11.61,18.1,12.21,1.7,27.43-4.3,37.84,3.3,8.31,8.7,16.82,17.4,25.43,25.8,9.71,10.5-2.9,55,6.21,65,11.01,15.6-19.92,15-9.21-.1,3.1-2.1,3.1-4.6,3.1-7.6-1.7-17.7,3.4-38-2.1-54.5-28.73-29.5-23.33-31.1-66.17-28.3,31.54,97.5,62.87,194.5,94.51,292.3-23.23,1.2-45.55.3-68.68.6-11.91,0-12.21-.2-16.12-11.3-24.83-73.7-54.06-146.5-75.89-221,.1-42,.1-83.9.1-125.9,33.64-2.9,71.88,6,103.42-3.5,17.72-17.9,35.54-35.6,53.46-53.3,6.41-10.4,2.3-30.7,2.3-43.2h-16.92c-1.7,12.6,4.2,26.6-4.51,36.5-15.52,15.4-30.94,30.9-46.35,46.5-33.44,6.7-71.48,1.3-105.92,3-1.7,107.1,2.9,213.7,1.5,320.9,4,66.5-36.74,130.8-109.12,126.3v-80.48c11.2-6,20.7-13.3,21.7-26.49,4.4-31.29,1.7-63.19,2.5-94.68-1.8-46.09,3.7-94.48-1.8-139.57-7.3-9.5-21.8-16.1-22.49-28.89,0-25.79.5-51.29-.3-77.08h-16.3c2.6,2.2-5.2,120.57,3,119.67,7.2,6-2.9,15.9-9.2,10.1,4.2-38.39,3-86.68,2.8-129.77h-11.9c-.8-18.5.3-36.49-.6-54.69-5.3,1.2-10,.4-8.8,6.7.1,74.88-.1,149.87.2,224.75,0,4.6-1.4,7.9-4.6,11.1-21.5,25.49-54.29,45.89-69.58,74.78.7,30.19-5.5,55.89,17.8,79.68,0-24.69.1-48.59-.1-73.18,0-3.3,1-5.5,3.3-7.8,5.9-5.7,11.6-11.7,17.3-17.6-1.2-5.4,2.4-11.4,8.5-9.8,6.8,2,5.6,13.4-2.5,12.5-8.8,1-13,11.4-19.9,16.1-2.5,2.3-3.5,4.8-3.5,8.3.2,24.19.2,48.49.1,72.68,0,3.7.7,6.9,2.8,9.9,13.8,18.9,25.49,39.79,40.39,57.69,5.1-48.69-16.4-59.19,36.89-44.29,1,9.1.6,75.78-.6,80.18h-9.3s23.2,37.4,28.6,34.7c51.2-1.5,107.1,3.7,155.1-3.4,7.1,4.9-2.2,15.9-8.1,9.4-47-7.7-99.7-1.4-148.3-2.3,5.6,4.9,7.9,12.9,15.7,13,55.9-.1,111.8-.1,167.7,0,17.3-7.8,28.9-27.7,43.9-39.8,2.3-3.3,8-6.3,8.2-9.6h-156.5c6.72-5.44,15.52-13.74,23.68-25.51,8.03-11.59,12.68-22.56,15.42-30.69ZM233.06,96.4c-16.2,2-34.2,5.4-44.8,19.2-7.7,11.9-22.5,21.2-25.6,35.2,0,52.4-.4,104.7,0,157.1,0,5-1.4,8.6-4.9,12-12.7,12.4-25.1,25.1-37.6,37.7-12.2,8.4-7.8,14.6-1.5,26.2,19.8-21.6,47.3-40.4,61.7-65.1-.1-28.8,0-57.6-.1-86.5,0-3.4.3-6.7-3.2-9.3-2.9-2.1-2.1-6.6.5-8.9,5.8-5.6,15.3,4,8.9,9.3-7.6,29.1-.5,63.5-2.6,94.3,0,4.4-1.2,7.5-4.3,10.6-18.5,18.3-36.8,36.8-55.1,55.2-7.6,5.6,2.8,13.5,4.8,20.4,23-26.5,54.7-47.9,72.3-77.1.4-50.2,0-100.5-.3-150.8,0-1.8.7-6.4-2.4-7.1-7.2-5.8,2.8-15.9,9.1-10.1,4.1,3.9,1.5,10.2-3.7,12,.5,52.1.7,104.2.8,156.3-16.4,30.9-51.4,52.3-73.9,80.1,8.5,16.6,17.6,32.6,27.3,48.2,1.8-13.4.8-27.1.6-40.5.1-22.9,55.3-60.8,71.3-81.9,8.5-76.4.6-158.3,2.7-236.5h0Zm291.5,590.3c5.6,10.6-11.1,15.5-12.1,4.5,0-3.6,3.2-6.7,7-6,32.6-24.6,61.2-60,91.4-89-18.3-.8-36.5,0-54.8-.4-2.6,0-4.2,1.1-5.9,2.8-17.7,17.8-35.5,35.6-53.3,53.3-2.3,2.3-4.3,4.3-3.6,8,.4,2.5-1.5,4.6-4,5.5-9.8,3.3-11.8-13.9-1.3-12.3,2,.3,3.4.1,5.1-1.6,18.1-18.9,37.1-36.5,54.8-55.8-10.4,1.4-21.2-3.5-29,3.8-15,15.3-30.4,30.3-45.4,45.5-2.7,2.8-5.5,3.8-9.3,3.8-56.3.1-112.5-.6-168.8.2,8.8,8.1,8.6,15.4,21.2,13.6,49.8,3.2,103.8-6.3,151.6,3.6,14.1,11.2,24.5,30.9,41.6,36.5,34-2.7,71.6,5.1,103.9-3.1,23.3-23.4,46.8-46.7,70.2-69.9,6.8-9.2,2.2-22.9,2.9-34-13.6,0-26.8.2-40.3,0-3.8-.1-6.5,1.1-9.2,3.8-16.7,16.8-33.7,33.4-50.3,50.2-10.8,13.2-29.3,25.5-36.6,40.4.1,3.6-3.2,6.8-6.7,6.7-8.1-.3-8.6-13.2,0-13.3,28.4-14.7,87.2-85.1,91.3-87.8-6.8.9-14.9-2.3-20.4,2.2-30.3,29.6-59.2,60.3-90,88.8h0Zm198.6-498.4c13.1,2.6,16.9,20.3,6.1,27-2.3,1.6-6.4,2.1-6.1,5.6.8,5.6-2.5,16.4,5.8,16.9,46.5,1.5,93.1.4,139.6.6,11.4,1.1,3.3-50.9,5.6-61.1.9-5.4-3.5-8.8-8.7-7.8h-137c-9.1.4-4.1,12.9-5.3,18.8Zm-441.1-102.7c.1.6.1,1.3.2,1.9h176.2c.9,19-.3,37.4.6,56.4,34.4,2.5,31.2-3.1,53.8-25.5,22.3-22.6,29.9-22.6,25.2-57-86.4-.6-171.6,7.7-256,24.2h0Zm664.1,228.9c19.2,13.7-16.4,22-5.2,2.1,5.5-20.2.3-43.9,2.1-65.2,0-2.9-.9-5-2.9-6.9-11.9-11.7-23.8-23.5-35.6-35.4-6.7-4.4-16.8-2-24.4-1.5.7,2.1-2.1,15.1,2.8,13.6,11.2-2,22.8,8.4,24.3,18.7,1.2,26-7.5,39,16.2,56.8,12,16.3.1,66.2,5.7,87.9,7.5-20.4,59.6-110.2,47.6-122.4-18-23.3-35.8-46.6-53.7-70-8.4-6.7-31.6-2-43.1-2.5-.3,4.8-.7,9.1.3,13.8,8.9,1.3,19.2-3,26.2,3,11.9,12,23.8,24,35.9,35.8,2.6,2.5,3.8,5,3.8,8.7-.1,21.1,0,42.5,0,63.5h0ZM138.06,179.3c-.4-.2-.9-.5-1.3-.8-9,17.8-75.7,85.3-66.9,97.5,7.2,16.4,13.9,33,21,49.4,3.7,8.4,1.5,6.9,10.6,7.1,4.8,0,9.7,1,13-3.4,7.2-10.1,22.1-16.7,24.1-29.3-.4-40.2.5-80.4-.5-120.5h0Zm302.9,616.2c89.7-85.8,50.9-78,177.6-76.2,35.6-22.6,63-62.5,95.6-90.9,5.1-9.4,1.6-22.4,1.8-32.9h-25.8c-1.4,15.6,5,29.9-8.9,40.6-25.5,21.5-45.9,53.8-74.4,69.5-128.9-1.3-88.8-11.3-179.5,77.6,4.7,4.3,9,8.1,13.6,12.3h0Zm49.6-43.7c-15.6,15.7-30.8,30.9-46.4,46.5,27.2,21.7,53.3,44.4,82.1,63.7,1.1-23.9,0-47.6.5-71.5-8.1-14.9-24.3-25.9-36.2-38.7h0ZM108.76,363.8c16.8-16.2,31.6-31.4,47.9-47.5,1.9-1.8,2.8-3.7,2.7-6.4-.3-50.1-.1-100.2-.2-150.2-.5-2.1,1-6.1-1.3-6.7-5.3,8.4-15.9,14.7-16.3,25.3-2.9,43.1,6,90.4-3.4,131.6-13.8,11.9-21.5,30.1-42.5,26.2,4.6,9.7,8.7,18.5,13.1,27.7h0Zm363.1,369.5c-11.3-9.8-22.8-28.2-36.4-33.1-30.9.4-61.6-.5-92.5.5,8,6.4,11.6,17.1,22.3,17.1,20.2-.2,40.4-.1,60.6,0,8.2-.3,12.2,8.4,18,13.2-11.8,12-23.1,23.5-34.7,35.4,5.4,5,10.5,9.7,15.5,14.2,15.9-15.9,31.4-31.5,47.2-47.3h0Zm-159.7-67.5c.8,4.9,9.2,14.1,15.8,13.9,16.7-.1,33.4-.1,50.1-.1,24.9,2,52.6-4.2,76.1,2.6,11.5,11.6,23,23.1,34.8,34.4l12.5-12.5c-13.3-10.6-28.5-35.2-44.4-38.5-48.3.2-96.6.2-144.9.2h0Zm218,194c5-1.3,23.8-14.4,23.3-20.8-.1-16.7-.1-33.4,0-50-10.5-19.7-32.9-33.9-47.9-51.2-3.9,4.1-7.7,7.9-11.6,12,10.6,11.1,21.8,22.1,32.7,32.9,2.6,2.5,3.6,5.2,3.6,8.8-.2,22.7-.1,45.5-.1,68.3h0Zm-55.1-128.4c4.2-4.3,8-8.1,11.6-11.8-10.8-12.1-23.1-22.7-34.4-34.4-40.5-6.2-84.4-.8-126.1-2,6.6,5.6,9.2,13.8,18,13.9,30.7-.1,61.4,0,92.1-.1,16,5.7,25.2,23.9,38.8,34.4h0Zm32.4,4.5c52.4,54.3,49.4,28.8,49,104,29.7-18,21.7-22.7,22.7-53.3.1-3.3-1.1-5.5-3.4-7.8-19.1-18.5-37-37.8-56.5-55.8-4,4.3-7.6,8.2-11.8,12.9h0Zm-143.2-14.9c10,14.9,28.6,28.9,42.5,42.8,11.2-11.1,21.9-21.9,32.7-33-5.3-4-7.8-10.4-14.7-10.1-20.2.3-40.4-.4-60.5.3Zm-82.3-573.5c-1.4,16.2-.1,32.8-.6,49.1,3.1,9.4,13.4,15.6,20.1,22.9,1.1-5.3.9-67.6-.2-72h-19.3Zm19.1,102.2c2.1-6.3,2.4-18.8-.8-25.6-6.4-5.3-11.4-13.5-18.9-16.9-2.2,25.4,2.7,25.9,19.7,42.5h0Zm472.5-4.9c-.7,13.6,0,7.4,4.2,17.7.8,3.2-1.7,9.4,3,9.9,6.2-1-.8-12.7,6.5-15.9,3.6-15.4-2.5-11.2-13.7-11.7h0Zm-37.2.7c-2.7,8.1,2.7,11,4.5,18.5.6,2.9-1.1,7.7,2.9,8.6,3.9-.3,1.3-6.3,2.2-8.9,1.9-8.1,6.5-9.2,4.6-19.2l-14.2,1h0Zm74.1-83h14.6c1.9-12.1-4.3-11.5-4.2-20.5-.3-2.4,1-6.8-2.8-6.7-3.2.2-2.1,3.8-2.3,6,.1,8.7-7.6,10.2-5.3,21.2Zm46.9,109.2c-2-17.5,7.3-10.8,5.3-27.2h-14.2c-2,13,4.7,11.3,4.3,20.9-.1,3.2-.6,8.7,4.6,6.3h0Zm5.3-109.2c2.3-13.8-6.1-12-5.1-22.9.4-1.6-.5-4.2-2-4.5-4.1.8-2.2,5.2-2.6,8.1-1.3,8.6-6.4,8.2-4.1,19.3h13.8Zm-112.1,0c1.3-9.8-5-14.8-4.7-23.5.4-1.7-.9-3.5-2.4-3.7-3.7.7-1.8,5.3-2.4,7.9-1.7,9-7.1,7.5-5,19.3h14.5Zm74.5,82.3c-12.6-3.3-20,2.5-10.8,13.7,1,.8,1.3,2.8,1.5,4.2.9,2.9-1.9,9.1,2.5,9.6,3.5-.3,1.9-4.8,2.4-7.1-.1-10.4,6.2-6.1,4.4-20.4h0Zm-37.5-81.3c2.6-9.5-4-14.2-4.3-21.9.7-9.6-6.9-5.3-4.9.1.1,8.9-8.2,9.9-4.5,20.8l13.7,1h0Zm-63.5,47.2c8.1-1.2,8.8-14.1,0-14.4v14.4Zm-159.7,527.7c-.1-4.6-7.8-5.3-8.1-.4,0,5.3,7.7,5.4,8.1.4h0Zm320.9-442.1c4.7-.2,4.1-7.6-.4-7.5-5.1.3-4.5,7.6.4,7.5h0Zm-340.9-89.2c-.2-4.5-7.8-4.2-7.4.4.5,4.8,7.3,4.2,7.4-.4h0Zm-4.1,115.5c.1-4.3-7.2-4.1-7.2,0-.4,4.7,7.4,5,7.2,0h0Zm2.9,364c-4.8-.3-5,7-.4,7.3,4.5.1,5.2-7.1.4-7.3h0Zm-284.7-417.3c-3.3,1.7-3.6,6.7,1.1,7.1,4.8-.5,4.3-7.4-1.1-7.1Zm-51.5-104.5c0-5-7.3-5.6-7.5-.8.2,4.7,5.7,3.8,7.5.8h0Z"/>
  <path id="path3" d="m772.16,505.8c-10.1-59.4,56.2-92.9,65.2-147.1,2.1-9.7-1.9-17.3-6.4-25.6.4-12.3-1-24.8.6-36.9,48,1.9,58.9,55,41.3,92.1-14.2,29.3-36.7,53.5-54,80.9-7.5,11-14.5,22.4-21.6,33.7-5.9,6.3-16.5,1.4-25.1,2.9Z"/>
  <path id="path4" d="m743.56,397.3c24.2,16.3,22.6,49.3,17.1,74.9-4.4,20.6-22.8,35.7-44.1,35.3-.5-11.4-.1-22.6-.3-34,9.1-19.2,14.7-61.9-18.3-57.7-1.7-9.6-.4-19.4-.7-29.1.1-4.6.6-5,5.2-5.4,22.8,2.6,24.2-28.5,16.2-42.9-5.6-11.6-1.3-26.6-2.3-39.5,47.4-2.4,64.7,75.1,27.2,98.4h0Z"/>
  <path id="path5" d="m820.76,295.8c1,11.6.1,23,.4,34.6,0,2.5-.7,4.5-2.4,6.6-7.3,9.2-4.8,21.7-5.5,32.5,1.5,8.5-30.8,2.4-37.6,4.2-2.4,0-4.2-.6-4.2-3.4-3.2-33.1,9.5-74.9,49.3-74.5h0Z"/>
  <path id="path6" d="m706.16,507.5c-26.8.9-44.7-23.4-45-48.5,1-6.4-5.1-23.5,4.8-23.1,7.1,1.7,35.5-4.9,33.4,5.5-.2,11.2.5,21.7,7.6,30.6-.5,11.8.6,24-.8,35.5Z"/>
  <path id="path7" d="m706.06,298.7v37.5c-7.8,5.5-6.6,16.6-6.9,25.2-.7,8.4-27.9,2.1-35.3,4-2,0-3.5-.8-3.6-3-3.3-30.1,11.5-63.2,45.8-63.7Z"/>
  <path id="path8" d="m502.76,681.4c-8.2.6-8.8-13.1-.7-12.5,3.4.4,5.1-1.3,7.1-3.3,12.2-12.1,24.4-24.1,36.6-36.3,1-1,1.4-2.6,1.8-4,1.2-8.3,14.2-6.1,13.3,1.9-2.7,12.3-12-.2-17.8,9.1-8.4,11.1-32.2,26.1-34.5,38.2.8,3.9-2,6.8-5.8,6.9h0Zm54.9-54.6c.2-4.8-7.5-4.7-7.3,0,0,4.4,7.4,4.3,7.3,0Z"/>
  <path id="path10" d="m743.76,232.7c-13.7.5-12.2-21.1.3-20.4,13,.1,13.2,21-.3,20.4h0Z"/>
</svg>
