<?xml version="1.0" encoding="UTF-8"?>
<svg id="_圖層_1" data-name=" 圖層 1" xmlns="http://www.w3.org/2000/svg" viewBox="0 0 1049.27 939.51">
  <defs>
    <style>
      .cls-1 {
        fill: #fff;
      }
    </style>
  </defs>
  <path d="m530.06.4c114.3-1.5,227.8,15.4,338.7,41.7,40.6,12.2,59.4,61,87.9,89.9,17.7,28.5,103.8,115.4,91.4,142.1-32.1,88.1-74.6,172.2-124,251.8-98.6,161.7-234.4,296.7-385.5,409.6-15.6,17.8-55.2-28.9-71.3-37.1-79.5-61-153.6-128.8-219-204.8-92.4-107.5-167.9-229.8-223.4-360.3-5.9-23-33.9-58.5-21.9-80.1,42.8-66.6,95.5-125.8,145.6-186.8,8.6-11,18.9-20.2,33-22.9C295.56,15.2,412.46-.2,530.06,0v.4h0Zm-130.9,539.9c129.8,5.2,296.1-10.9,408.1,5.6-10.7,15-21.5,30-32,45.1-5.5,8.4-16.9,3.4-25.2,4.8-1.5,9.8,2.2,27.7-3.3,35-35.1,35.2-70.4,70.3-105.4,105.6-12.3,10-63-2.8-75.7,6-5.3,7.6-16.8-2.1-10.2-8.7,2.8-3,6.9-3.2,9.6.2,3.8,4.8,9.6,2.5,14.7,2.9,17.2-2.5,48.1,5.5,61.1-4.5,33.6-34.4,68.1-68.1,102.1-102.2,6.7-9.3,2.5-23.2,2.8-34.3-9.2.3-17.1-.9-26.3.7-1.6,11.4,3.7,25.3-3.1,34.9-29,29.1-58.3,58-87.2,87.2-3,3-5.8,4.3-10,4.3-31.1,0-62.3-.4-93.5.1,15.8,23,44.4,37.7,56.4,62.1.1,11.6-.7,22.6.4,34.2,25.7-18.4,19.6-22.1,20-50.7-4-2.9-6.8-8.3-2.4-12.1,8.7-6.2,14.3,7.8,6.1,11.9v30c43.2-24.2,232.7-240.5,252.8-292.2-16.9-.4-33.8.2-51.4-.3,29-46.2,16.7-39.2,70.9-39,.6,2.6,1,4.8,1.7,7.9,9.1-14.8,17.5-29.8,26.3-44.8,4.4-35,.3-71.7,1.7-107.2-1.5-10.2-13.2-15.1-19.4-23.1-4.5,1.5-9.9-1.8-10-6.5,1.6-12.4,17.1-6.6,14,4.7,6.1,8.6,18.7,14,18.6,25.5-.1,31.8-.1,64.1-.1,95.8,23.4-32.5,10.6-74.6,13.7-112.1-1.3-12.4-20-16.7-20.8-29.3-.9-20.5,7.8-56.1-23.9-52.8,1.3,28-14,8.1-12.1,28.8-.1,5.7-6.3,8.4-5.1,14.1.2,3.4.1,8.5-4,9.3-7.3,2.1-12.3-2.1-11.1-10.2-1.6-10.8-6.6-5.6-5.1-23.1h-12.2c1.6,11.1-2.2,13.4-4.7,22.1.3,5.7-.3,12.1-7.5,11.6-7.6.7-8.2-5.8-8-11.7-2.9-10.8-6.1-3.8-5-21h-12.1c2.1,20.3-6.1,12.2-4.9,28.7-.7,7.5-15,7.6-15.4-.2.8-10.2-7.1-17.7-4.9-28.4-19.4-4.4-7.7,7.9-15.1,17.2-4.3,4.6,1.1,13.5-5.8,16.3-3.1,1.3-8.5.3-10.3-2-3.5-4.8.5-11.4-4.1-15.9-2.5-4-1.7-10.6-2.2-15.1-8.5-2.8-12.8-4.5-12.4-14.1,0-17.9-.1-35.9-.1-53.8-1.1-8.4,4.2-13.9,12.8-13.2-1.4-19.5,2.2-11.4,4.6-23.1-.5-5,.4-10.9,6.5-11.1,8-1.3,9.7,5.1,9.1,11.7,2.7,10.8,6.4,6.1,5,22.3,4.8-.1,7.5.4,12-.6-1-10.9.9-12.4,4.8-21.4.3-4-1-9.4,3.6-11.4,8.2-4,13.4,3.1,12,11,2,10,6.3,6.8,4.7,21.8,19.1,4.6,6.8-8.1,15.1-16.3,4.4-5.5-1.4-18.2,9.7-17.2,7.2-.5,8.5,5.1,8,11.2,1.3,10.1,6.5,7.3,4.7,22.6h12.1c-2.2-12.6,5.2-16.5,5-27.5.9-9.3,16.5-7.8,15.1,2.1-1.9,6.9,5.5,9.6,5.1,15.9.6,3.2-1.8,9.3,1.9,10.1,29.5,8.3-20,28.1,47.4,21.1-19.6-20.8-50.4-77.7-74.2-84.6-91.4-23.2-185.7-38.3-280-39.3.2,9.5-.2,19.8.1,37.6-1,9.5-12.2,14.6-17.7,21.9-49.9,47.8-28.5,44.4-98.9,44,2.6,5.6,2.2,13.7,6.4,16.4,19-1.6,40.4,3.5,58.2-2.2,52.1-50.2,30.7-47.3,105-46.5,5,.4,6,.1,7.3-4.9,6.7-11.7,5-39.9,23-37.7,22.9,1.6,45.8,4,68.4,8.1,18.3-3.7-33.7,113-35.4,128.5-35.3,96.6-64.2,199.2-103.1,292.6-13.2-41.8-30.3-84.2-39.1-126.6,23.2-72.2,47.3-144.2,70.2-216.6-38.7-4.5-35.1,1.4-61,26.2,2,5.2.5,11.3-5.6,11.6-9,.8-10.3-13.9-.5-13.4,3.3.1,5.2-1.4,7.2-3.4,24.5-24.5,19.7-26.3,53.1-25.5,12.3.6,7.4-.5,13.1-15-52-1.8-41.9-6.5-78,30.2-4,3.8,0,13.1-8.6,12.5-8.7-.4-8-13.7.8-13.2,13-4,22.1-21.2,33.3-29.7,13.7-9.2,33.8-1.2,49.8-3.9,7.4.2,6-11,9-16.3-72.7-1.5-55.6-6.6-105.9,44.5-7.4,8.2-59.5,2-61.9,3.9,3.5,6.6,1.9,19.2,11.4,17,16.1,1.8,35-3.9,49.6,2.7,11.3,15.6,44.1,34.6,44,53,1.3,10.7-4,26.2,2.8,33.9,10.8,15.1-20.2,14.1-8.6,0,5.9-9.9.6-23.9,2.5-35.3-2.9-17.1-31.2-33.8-42.2-48.6-1.9-2-4-2.5-6.6-2.5-15.5.4-30.7-.6-46.2.5,3.4,6.7,1.7,20.5,11.6,18.1,12.2,1.7,27.4-4.3,37.8,3.3,8.3,8.7,16.8,17.4,25.4,25.8,9.7,10.5-2.9,55,6.2,65,11,15.6-19.9,15-9.2-.1,3.1-2.1,3.1-4.6,3.1-7.6-1.7-17.7,3.4-38-2.1-54.5-28.7-29.5-23.3-31.1-66.1-28.3,31.5,97.5,62.8,194.5,94.4,292.3-23.2,1.2-45.5.3-68.6.6-11.9,0-12.2-.2-16.1-11.3-24.8-73.7-54-146.5-75.8-221,.1-42,.1-83.9.1-125.9,33.6-2.9,71.8,6,103.3-3.5,17.7-17.9,35.5-35.6,53.4-53.3,6.4-10.4,2.3-30.7,2.3-43.2h-16.9c-1.7,12.6,4.2,26.6-4.5,36.5-15.5,15.4-30.9,30.9-46.3,46.5-33.4,6.7-71.4,1.3-105.8,3-1.7,107.1,2.9,213.7,1.5,320.9,4,66.5-36.7,130.8-109,126.3v-80.4c11.2-6,20.7-13.3,21.7-26.5,4.4-31.3,1.7-63.2,2.5-94.7-1.8-46.1,3.7-94.5-1.8-139.6-7.3-9.5-21.8-16.1-22.5-28.9,0-25.8.5-51.3-.3-77.1h-16.3c2.6,2.2-5.2,120.6,3,119.7,7.2,6-2.9,15.9-9.2,10.1,4.2-38.4,3-86.7,2.8-129.8h-11.9c-.8-18.5.3-36.5-.6-54.7-5.3,1.2-10,.4-8.8,6.7.1,74.9-.1,149.9.2,224.8,0,4.6-1.4,7.9-4.6,11.1-21.5,25.5-54.3,45.9-69.6,74.8.7,30.2-5.5,55.9,17.8,79.7,0-24.7.1-48.6-.1-73.2,0-3.3,1-5.5,3.3-7.8,5.9-5.7,11.6-11.7,17.3-17.6-1.2-5.4,2.4-11.4,8.5-9.8,6.8,2,5.6,13.4-2.5,12.5-8.8,1-13,11.4-19.9,16.1-2.5,2.3-3.5,4.8-3.5,8.3.2,24.2.2,48.5.1,72.7,0,3.7.7,6.9,2.8,9.9,13.8,18.9,25.5,39.8,40.4,57.7,5.1-48.7-16.4-59.2,36.9-44.3,1,9.1.6,75.8-.6,80.2h-9.1c2.8,5.4,23.2,36.9,28.6,34.2,51.2-1.5,107.1,3.7,155.1-3.4,7.1,4.9-2.2,15.9-8.1,9.4-47-7.7-99.7-1.4-148.3-2.3,5.6,4.9,7.9,12.9,15.7,13,55.9-.1,111.8-.1,167.7,0,17.3-7.8,28.9-27.7,43.9-39.8,2.3-3.3,8-6.3,8.2-10h-156.5c17.9-15.6,32.1-33,39.4-55.5l-.3-.3ZM232.96,96.4c-16.2,2-34.2,5.4-44.8,19.2-7.7,11.9-22.5,21.2-25.6,35.2,0,52.4-.4,104.7,0,157.1,0,5-1.4,8.6-4.9,12-12.7,12.4-25.1,25.1-37.6,37.7-12.2,8.4-7.8,14.6-1.5,26.2,19.8-21.6,47.3-40.4,61.7-65.1-.1-28.8,0-57.6-.1-86.5,0-3.4.3-6.7-3.2-9.3-2.9-2.1-2.1-6.6.5-8.9,5.8-5.6,15.3,4,8.9,9.3-7.6,29.1-.5,63.5-2.6,94.3,0,4.4-1.2,7.5-4.3,10.6-18.5,18.3-36.8,36.8-55.1,55.2-7.6,5.6,2.8,13.5,4.8,20.4,23-26.5,54.7-47.9,72.3-77.1.4-50.2,0-100.5-.3-150.8,0-1.8.7-6.4-2.4-7.1-7.2-5.8,2.8-15.9,9.1-10.1,4.1,3.9,1.5,10.2-3.7,12,.5,52.1.7,104.2.8,156.3-16.4,30.9-51.4,52.3-73.9,80.1,8.5,16.6,17.6,32.6,27.3,48.2,1.8-13.4.8-27.1.6-40.5.1-22.9,55.3-60.8,71.3-81.9,8.5-76.4.6-158.3,2.7-236.5h0Zm291.5,590.3c5.6,10.6-11.1,15.5-12.1,4.5,0-3.6,3.2-6.7,7-6,32.6-24.6,61.2-60,91.4-89-18.3-.8-36.5,0-54.8-.4-2.6,0-4.2,1.1-5.9,2.8-17.7,17.8-35.5,35.6-53.3,53.3-2.3,2.3-4.3,4.3-3.6,8,.4,2.5-1.5,4.6-4,5.5-9.8,3.3-11.8-13.9-1.3-12.3,2,.3,3.4.1,5.1-1.6,18.1-18.9,37.1-36.5,54.8-55.8-10.4,1.4-21.2-3.5-29,3.8-15,15.3-30.4,30.3-45.4,45.5-2.7,2.8-5.5,3.8-9.3,3.8-56.3.1-112.5-.6-168.8.2,8.8,8.1,8.6,15.4,21.2,13.6,49.8,3.2,103.8-6.3,151.6,3.6,14.1,11.2,24.5,30.9,41.6,36.5,34-2.7,71.6,5.1,103.9-3.1,23.3-23.4,46.8-46.7,70.2-69.9,6.8-9.2,2.2-22.9,2.9-34-13.6,0-26.8.2-40.3,0-3.8-.1-6.5,1.1-9.2,3.8-16.7,16.8-33.7,33.4-50.3,50.2-10.8,13.2-29.3,25.5-36.6,40.4.1,3.6-3.2,6.8-6.7,6.7-8.1-.3-8.6-13.2,0-13.3,28.4-14.7,87.2-85.1,91.3-87.8-6.8.9-14.9-2.3-20.4,2.2-30.3,29.6-59.2,60.3-90,88.8h0Zm198.6-498.6c13.1,2.6,16.9,20.3,6.1,27-2.3,1.6-6.4,2.1-6.1,5.6.8,5.6-2.5,16.4,5.8,16.9,46.5,1.5,93.1.4,139.6.6,11.4,1.1,3.3-50.9,5.6-61.1.9-5.4-3.5-8.8-8.7-7.8h-137c-9.1.4-4.1,12.9-5.3,18.8Zm-441.1-102.2c.1.6.1,1.3.2,1.9h176.2c.9,19-.3,37.4.6,56.4,34.4,2.5,31.2-3.1,53.8-25.5,22.3-22.6,29.9-22.6,25.2-57-86.4-.6-171.6,7.7-256,24.2Zm664.1,228.6c19.2,13.7-16.4,22-5.2,2.1,5.5-20.2.3-43.9,2.1-65.2,0-2.9-.9-5-2.9-6.9-11.9-11.7-23.8-23.5-35.6-35.4-6.7-4.4-16.8-2-24.4-1.5.7,2.1-2.1,15.1,2.8,13.6,11.2-2,22.8,8.4,24.3,18.7,1.2,26-7.5,39,16.2,56.8,12,16.3.1,66.2,5.7,87.9,7.5-20.4,59.6-110.2,47.6-122.4-18-23.3-35.8-46.6-53.7-70-8.4-6.7-31.6-2-43.1-2.5-.3,4.8-.7,9.1.3,13.8,8.9,1.3,19.2-3,26.2,3,11.9,12,23.8,24,35.9,35.8,2.6,2.5,3.8,5,3.8,8.7-.1,21.1,0,42.5,0,63.5h0ZM137.96,179.3c-.4-.2-.9-.5-1.3-.8-9,17.8-75.7,85.3-66.9,97.5,7.2,16.4,13.9,33,21,49.4,3.7,8.4,1.5,6.9,10.6,7.1,4.8,0,9.7,1,13-3.4,7.2-10.1,22.1-16.7,24.1-29.3-.4-40.2.5-80.4-.5-120.5Zm302.9,616.5c89.7-85.8,50.9-78,177.6-76.2,35.6-22.6,63-62.5,95.6-90.9,5.1-9.4,1.6-22.4,1.8-32.9h-25.8c-1.4,15.6,5,29.9-8.9,40.6-25.5,21.5-45.9,53.8-74.4,69.5-128.9-1.3-88.8-11.3-179.5,77.6,4.7,4.3,9,8.1,13.6,12.3h0Zm49.6-44c-15.6,15.7-30.8,30.9-46.4,46.5,27.2,21.7,53.3,44.4,82.1,63.7,1.1-23.9,0-47.6.5-71.5-8.1-14.9-24.3-25.9-36.2-38.7ZM108.66,363.8c16.8-16.2,31.6-31.4,47.9-47.5,1.9-1.8,2.8-3.7,2.7-6.4-.3-50.1-.1-100.2-.2-150.2-.5-2.1,1-6.1-1.3-6.7-5.3,8.4-15.9,14.7-16.3,25.3-2.9,43.1,6,90.4-3.4,131.6-13.8,11.9-21.5,30.1-42.5,26.2,4.6,9.7,8.7,18.5,13.1,27.7Zm363.1,369.5c-11.3-9.8-22.8-28.2-36.4-33.1-30.9.4-61.6-.5-92.5.5,8,6.4,11.6,17.1,22.3,17.1,20.2-.2,40.4-.1,60.6,0,8.2-.3,12.2,8.4,18,13.2-11.8,12-23.1,23.5-34.7,35.4,5.4,5,10.5,9.7,15.5,14.2,15.9-15.9,31.4-31.5,47.2-47.3h0Zm-159.7-67.5c.8,4.9,9.2,14.1,15.8,13.9,16.7-.1,33.4-.1,50.1-.1,24.9,2,52.6-4.2,76.1,2.6,11.5,11.6,23,23.1,34.8,34.4l12.5-12.5c-13.3-10.6-28.5-35.2-44.4-38.5-48.3.2-96.6.2-144.9.2h0Zm218,194c5-1.3,23.8-14.4,23.3-20.8-.1-16.7-.1-33.4,0-50-10.5-19.7-32.9-33.9-47.9-51.2-3.9,4.1-7.7,7.9-11.6,12,10.6,11.1,21.8,22.1,32.7,32.9,2.6,2.5,3.6,5.2,3.6,8.8-.2,22.7-.1,45.5-.1,68.3h0Zm-55.1-128.4c4.2-4.3,8-8.1,11.6-11.8-10.8-12.1-23.1-22.7-34.4-34.4-40.5-6.2-84.4-.8-126.1-2,6.6,5.6,9.2,13.8,18,13.9,30.7-.1,61.4,0,92.1-.1,16,5.7,25.2,23.9,38.8,34.4Zm32.4,4.5c52.4,54.3,49.4,28.8,49,104,29.7-18,21.7-22.7,22.7-53.3.1-3.3-1.1-5.5-3.4-7.8-19.1-18.5-37-37.8-56.5-55.8-4,4.3-7.6,8.2-11.8,12.9h0Zm-143.2-14.9c10,14.9,28.6,28.9,42.5,42.8,11.2-11.1,21.9-21.9,32.7-33-5.3-4-7.8-10.4-14.7-10.1-20.2.3-40.4-.4-60.5.3Zm-82.3-573.2c-1.4,16.2-.1,32.8-.6,49.1,3.1,9.4,13.4,15.6,20.1,22.9,1.1-5.3.9-67.6-.2-72h-19.3Zm19.1,101.9c2.1-6.3,2.4-18.8-.8-25.6-6.4-5.3-11.4-13.5-18.9-16.9-2.2,25.4,2.7,25.9,19.7,42.5h0Zm472.5-4.9c-.7,13.6,0,7.4,4.2,17.7.8,3.2-1.7,9.4,3,9.9,6.2-1-.8-12.7,6.5-15.9,3.6-15.4-2.5-11.2-13.7-11.7h0Zm-37.2,0c-2.7,8.8,2.7,11.7,4.5,19.2.6,2.9-1.1,7.7,2.9,8.6,3.9-.3,1.3-6.3,2.2-8.9,1.9-8.1,6.5-9.2,4.6-19l-14.2.1h0Zm74.1-82h14.6c1.9-12.1-4.3-11.5-4.2-20.5-.3-2.4,1-6.8-2.8-6.7-3.2.2-2.1,3.8-2.3,6,.1,8.7-7.6,10.2-5.3,21.2Zm46.9,109.2c-2-17.5,7.3-10.8,5.3-27.2h-14.2c-2,13,4.7,11.3,4.3,20.9-.1,3.2-.6,8.7,4.6,6.3h0Zm5.3-109.2c2.3-13.8-6.1-12-5.1-22.9.4-1.6-.5-4.2-2-4.5-4.1.8-2.2,5.2-2.6,8.1-1.3,8.6-6.4,8.2-4.1,19.3h13.8Zm-112.1,0c1.3-9.8-5-14.8-4.7-23.5.4-1.7-.9-3.5-2.4-3.7-3.7.7-1.8,5.3-2.4,7.9-1.7,9-7.1,7.5-5,19.3h14.5Zm74.5,82c-12.6-3.3-20,2.5-10.8,13.7,1,.8,1.3,2.8,1.5,4.2.9,2.9-1.9,9.1,2.5,9.6,3.5-.3,1.9-4.8,2.4-7.1-.1-10.4,6.2-6.1,4.4-20.4h0Zm-37.5-82c2.6-8.8-4-13.5-4.3-21.2.7-9.6-6.9-5.3-4.9.1.1,8.9-8.2,9.9-4.5,21.2l13.7-.1h0Zm-63.4,47.9c8.1-1.2,8.8-14.1,0-14.4v14.4Zm-159.8,527.7c-.1-4.6-7.8-5.3-8.1-.4,0,5.3,7.7,5.4,8.1.4h0Zm320.9-442.1c4.7-.2,4.1-7.6-.4-7.5-5.1.3-4.5,7.6.4,7.5h0Zm-340.9-89.2c-.2-4.5-7.8-4.2-7.4.4.5,4.8,7.3,4.2,7.4-.4h0Zm-4.1,115.5c.1-4.3-7.2-4.1-7.2,0-.4,4.7,7.4,5,7.2,0h0Zm2.9,364c-4.8-.3-5,7-.4,7.3,4.5.1,5.2-7.1.4-7.3h0Zm-284.7-417.3c-3.3,1.7-3.6,6.7,1.1,7.1,4.8-.5,4.3-7.4-1.1-7.1Zm-51.5-104.5c0-5-7.3-5.6-7.5-.8.2,4.7,5.7,3.8,7.5.8h0Z"/>
  <path class="cls-1" d="m397.86,539.5c-7.3,22.4-21.6,39.8-39.5,55.3h157.8c.8,4.4-5.8,7.4-8.2,11-15,12.2-26.6,32.1-43.9,39.8-55.9-.1-111.8-.1-167.7,0-7.8-.1-10.1-8-15.7-13,48.7.9,101.4-5.4,148.3,2.3,5.8,6.5,15.2-4.5,8.1-9.4-48.1,7.1-103.9,1.9-155.1,3.4-8.8.2-21.9-25.7-28.6-33.1h9.2c1.2-4.5,1.6-71.3.6-80.4-53.3-15-31.8-4.2-36.9,44.4-14.9-17.9-26.6-38.8-40.4-57.8-2.1-3-2.8-6.3-2.8-9.9,2.8-25.8-5.4-57.6,3.4-81.1,6.9-4.8,11.1-15.2,19.9-16.2,8.1.9,9.4-10.6,2.5-12.5-6.1-1.6-9.7,4.4-8.5,9.9-5.7,5.9-11.4,11.9-17.3,17.7-2.3,2.3-3.3,4.5-3.3,7.8.1,24.7,0,48.6.1,73.4-23.3-24-17.1-49.5-17.8-79.9,15.2-29,48-49.4,69.6-75,3.2-3.2,4.6-6.5,4.6-11.1-.3-75.1-.1-150.2-.2-225.4-1.2-6,3.6-5.8,8.8-6.7,1,18.3-.2,36.3.6,54.8h11.8c.2,43.4,1.4,91.6-2.8,130.1,6.2,5.8,16.3-4.1,9.2-10.1-7.9.7-.3-117.8-2.8-120h16.4c.8,25.8.3,51.3.3,77.1.7,12.8,15.3,19.5,22.5,28.9,5.6,45.1.1,93.4,1.9,139.6-3.5,33.7,9.3,85.4-11.4,112.8-3.7,3.1-12.7,8.4-12.7,8.4v78.3c72.1,4.3,112.4-59.5,108.5-125.8,1.4-106.7-3.2-212.6-1.5-319.3,34.7-1.7,71.8,3.6,105.4-3,15.4-15.5,30.8-31.1,46.3-46.5,8.7-9.8,2.7-23.9,4.5-36.5h17.8c0,12.2,4,33.3-2.3,43.2-17.9,17.7-35.7,35.4-53.4,53.3-31.4,9.5-69.7.6-103.3,3.5,0,42,0,83.9-.1,125.9,21.8,74.5,50.9,147.3,75.7,221,3.9,11.1,4.2,11.4,16.1,11.3,23.1-.3,45.4.6,68.6-.6-31.6-97.8-62.9-194.9-94.4-292.3,43-2.8,37.4-1.2,66.1,28.3,5.5,16.5.4,36.8,2.1,54.5,0,3,0,5.6-3.1,7.6-10.8,15,20.2,15.8,9.2.1-9.1-9.9,3.5-54.4-6.2-65-8.6-8.5-17.1-17.1-25.4-25.8-10.3-7.6-25.6-1.6-37.8-3.3-9.9,2.4-8.2-11.4-11.6-18.1,15.5-1.2,30.7-.1,46.2-.5,2.6,0,4.6.5,6.6,2.5,11.1,14.8,39.3,31.5,42.3,48.6-1.9,11.4,3.3,25.4-2.5,35.3-11.7,14,19.4,15.2,8.6,0-6.8-7.7-1.5-23.2-2.8-33.9.1-18.3-32.7-37.4-44-53-14.6-6.5-33.5-.8-49.6-2.7-9.6,2.2-7.9-10.3-11.4-17,9,.1,29.5-.3,52.1,0,4,0,6.8-1,9.7-3.9,50.3-51,33.5-45.9,105.9-44.4-2.9,5.3-1.6,16.5-9,16.3-16,2.7-36.1-5.3-49.8,3.9-11.2,8.5-20.3,25.7-33.3,29.7-8.8-.6-9.6,12.9-.8,13.2,8.6.5,4.6-8.8,8.6-12.6,36.1-36.8,26.1-32,78-30.2-5.7,14.5-.9,15.6-13.1,15-33.2-.9-29,1.3-53.1,25.5-2,2-3.9,3.6-7.2,3.4-9.8-.6-8.5,14.2.5,13.4,6-.3,7.5-6.4,5.5-11.6,25.9-24.8,22.4-30.7,61-26.2-22.9,72.3-47.1,144.3-70.2,216.5,8.8,42.5,25.9,84.8,39.1,126.6,39-93.4,67.8-196,103.1-292.6,1.9-16.1,53.5-131.7,35.4-128.5-22.6-4.1-45.5-6.5-68.4-8.1-18-2.3-16.4,26-23,37.6-1.2,5.1-2.4,5.3-7.3,4.9-74.2-.9-53-3.7-104.9,46.5-17.8,5.7-39.2.6-58.2,2.2-4.2-2.7-3.7-10.7-6.4-16.4,70.5.5,48.9,3.8,98.9-44,5.4-7.3,16.7-12.4,17.7-21.9-.3-16.8.1-28.2,0-36.3,94.2,1,188.4,15.9,279.7,38.8,23.9,6.9,54.4,62.8,74.2,83.5-3.9,1.2-31.8,1.3-37.3.2,3.2-31.7-14.6-10.4-12-31,1.1-5.7-6.1-7.6-5.1-13.1.5-6.5-1.7-11.7-9-10.6-6.4.2-6.3,6.4-6.3,11.2-3.4,8-6,12.6-4.8,21.9h-12.1c1.7-15.2-3.4-12.3-4.7-22.3.5-6.1-.7-11.6-7.9-11.1-11-1-5.2,11.5-9.7,17-8.3,8.1,3.9,20.6-15.1,16.1,1.6-14.9-2.7-11.5-4.7-21.5,1.4-7.8-3.8-14.8-12-10.8-4.6,2-3.3,7.3-3.6,11.2-4,9.1-5.8,10.2-4.8,21.2-4.5.9-7.2.5-12,.6,1.4-16-2.2-11.3-5-22,.6-6.6-1.1-12.8-9.1-11.6-10.5.4-3.4,12.3-8.8,17-4.2,4.3-1.5,11.1-2.3,16.7-8.5-.6-13.9,4.6-12.8,13.1,0,17.7,0,35.4.1,53.1-.4,9.5,3.9,11.2,12.4,14,.5,4.4-.3,10.9,2.2,14.9,4.6,4.5.6,11,4.1,15.7,1.8,2.2,7.2,3.3,10.3,1.9,6.9-2.7,1.5-11.5,5.8-16.1,7.4-9.3-4.1-21.4,15.1-17-2.2,10.6,5.7,17.9,4.8,28,.5,7.9,14.9,7.4,15.4-.2-1.3-15.7,6.9-8.1,4.8-28h12c-1.1,16.2,1.3,10.7,5,21.8-.2,5.9.4,12.4,8,11.7,7.3.5,7.8-5.9,7.5-11.6,2.4-8.5,6.3-11.1,4.7-21.9h12.2c-1.5,17,3.5,12.2,5.1,22.9-1.3,8.1,3.7,12.3,11.1,10.2,4.1-.9,4.2-5.9,4-9.3-1.2-5.7,5-8.4,5.1-14.1-1.9-20.6,13.4-.9,12.1-28.8,31.6-3.3,23,32.3,23.9,52.7.8,12.6,19.5,16.9,20.8,29.3-3.5,37.3,10.6,80.5-14.3,111.9,0-32.2-.1-63.9.1-96.1.1-11.4-12.5-16.9-18.6-25.4,3.1-11.2-12.4-17.1-14-4.7.1,4.7,5.6,8,10,6.5,6.2,8,17.8,12.9,19.4,23-1.4,35.5,2.7,72.1-1.7,107-8.7,15-17.1,29.9-26.2,44.7-.6-3.1-1.1-5.3-1.7-7.9-54-.2-41.7-6.9-70.6,38.9,17.6.5,34.6-.1,51.5.3-20.4,52-210.2,267.5-253.4,291.6v-29.4c8.8-4.1,2.6-18-5.9-11.8-4.4,3.8-1.6,9.1,2.4,12-.4,29,5.9,31.8-20.1,50.5-1.1-11.5-.3-22.6-.4-34.1-12-24.4-40.7-38.9-56.6-61.9,31.2-.5,62.5-.1,93.7-.1,4.2,0,7.1-1.3,10.1-4.3,29.1-29.1,58.4-57.9,87.5-86.9,6.8-9.5,1.5-23.4,3.1-34.8,9.2-1.5,17.1-.3,26.4-.7-.2,11,3.9,24.9-2.8,34.2-34.1,33.9-68.7,67.5-102.4,101.8-13.2,10-43.9,2-61.3,4.5-5.1-.5-10.9,1.9-14.7-2.9-5.9-7.7-16.3,3.9-9.2,9.6,2.9,2.4,7.6,2.2,9.8-1.1,12.8-8.8,63.5,4,75.9-6,35.2-35.1,70.6-70,105.8-105.2,6.1-9.9,1.1-23.4,2.6-34.8,9.2-1.4,20,3.8,25.9-4.7,10.6-15.1,21.4-30,32.1-45-112.6-16.5-279-.5-409.3-5.6h.2Zm374.2-33.7c8.5-1.4,19.2,3.4,25.1-3,7.1-11.3,14.1-22.7,21.6-33.7,17.3-27.4,39.8-51.6,54-80.9,17.6-37,6.7-90.2-41.3-92.1-1.6,12.1-.2,24.6-.6,36.9,4.4,8.3,8.5,15.8,6.4,25.6-9,54.3-75.3,87.9-65.2,147.2h0Zm-28.6-108.5c37.5-23.2,20.2-100.9-27.3-98.3,1,12.9-3.3,27.9,2.3,39.5,8,14.4,6.6,45.5-16.2,42.9-4.6.4-5.1.8-5.2,5.4.3,9.7-1,19.5.7,29.1,33-4.2,27.4,38.4,18.3,57.7.2,11.4-.2,22.5.3,34,40.5.8,51.7-44.5,46.4-77.1-1.2-14.3-7.8-24.8-19.3-33.2h0Zm77.2-101.5c-39.9-.4-52.5,41.4-49.4,74.4,0,2.9,1.8,3.4,4.2,3.4,6.8-1.7,39.1,4.3,37.6-4.2.7-10.9-1.8-23.4,5.5-32.6,1.8-2.1,2.4-4,2.4-6.6-.3-11.4.6-22.8-.3-34.4h0Zm-114.6,211.7c1.4-11.5.3-23.7.8-35.5-7.1-8.9-7.7-19.4-7.6-30.6,2.1-10.5-26.3-3.8-33.4-5.5-10-.4-3.8,16.7-4.8,23.1.3,25.2,18.2,49.4,45,48.5h0Zm0-208.8c-34.3.5-49.1,33.6-45.7,63.6,0,2.2,1.5,3,3.5,3,7.4-1.9,34.5,4.5,35.3-3.9.3-8.6-.9-19.7,6.9-25.2v-37.5Z"/>
  <path class="cls-1" d="m232.96,96.4c-2.1,78.1,5.8,160.2-2.8,236.5-16.1,21.3-71.2,58.9-71.3,81.9.3,13.5,1.2,27.2-.6,40.6-9.7-15.7-18.7-31.6-27.3-48.2,22.5-27.7,57.4-49.2,73.9-80-.2-52.1,0-104.2.2-156.3,17.6-14.8-18-19.5-6.4-1.9,4.2,2.1,3.5,2.4,3.4,7.1-.8,50.2-.3,100.5-.7,150.8-17.7,29.2-49.3,50.6-72.3,77.1-2-6.9-12.4-14.8-4.8-20.4,18.4-18.4,36.7-36.9,55.1-55.2,3.1-3.1,4.4-6.3,4.3-10.6,2.2-30.8-5-65.2,2.6-94.3,6.4-5.2-3.1-14.9-8.9-9.3-2.6,2.3-3.4,6.7-.5,8.9,3.5,2.7,3.2,5.9,3.2,9.3,0,28.8,0,57.6.1,86.5-14.4,24.8-41.9,43.5-61.7,65.1-6.3-11.9-10.8-17.5,1.5-26.2,12.5-12.6,24.9-25.3,37.6-37.7,3.5-3.5,5-7.1,4.9-12-.4-52.4-.1-104.7,0-157.1,3.1-14,17.9-23.3,25.6-35.2,10.6-13.9,28.6-17.4,44.9-19.4h0Z"/>
  <path class="cls-1" d="m524.46,686.7c30.8-28.4,59.8-59.2,89.7-88.6,5.5-4.5,13.5-1.3,20.4-2.2-4.1,2.6-62.9,73.1-91.3,87.8-8.6,0-8.2,13,0,13.3,3.5.1,6.8-3.2,6.7-6.7,7.2-14.9,25.8-27.3,36.6-40.4,16.7-16.8,33.7-33.4,50.4-50.2,2.7-2.7,5.4-3.9,9.2-3.8,13.5.2,26.8,0,40.3,0-.6,11,3.8,24.8-2.9,34-23.4,23.3-46.9,46.5-70.2,69.9-32.2,8.1-69.9.4-103.8,3.1-17.1-5.6-27.5-25.3-41.6-36.5-47.8-9.9-101.8-.4-151.6-3.6-12.6,1.8-12.5-5.5-21.2-13.6,56.4-.8,112.5-.2,168.8-.3,3.8.1,6.6-1,9.3-3.8,15-15.2,30.4-30.3,45.4-45.5,7.9-7.3,18.6-2.4,29-3.8-17.7,19.2-36.7,36.9-54.8,55.8-1.7,1.7-3.1,1.8-5.1,1.6-10.4-1.6-8.5,15.7,1.3,12.3,2.5-.9,4.4-3,4-5.5-.6-3.8,1.4-5.8,3.6-8,17.8-17.7,35.6-35.5,53.3-53.3,1.7-1.7,3.3-2.8,5.9-2.8,18.3.4,36.5-.4,54.8.4-30.2,29.1-58.8,64.5-91.4,89-3.8-.7-7,2.3-7,6,1.1,10.9,17.7,6,12.2-4.6Zm-21.8-5.3c3.8-.1,6.6-2.9,5.8-7,2.2-12,26.1-27.2,34.4-38.2,6-9.3,15.1,3.2,17.9-9.1.8-7.9-12.1-10.2-13.3-1.9-.3,1.4-.8,3.1-1.8,4-12.1,12.2-24.4,24.2-36.6,36.3-2,2-3.8,3.7-7.1,3.3-8.1-.5-7.6,13.2.7,12.6Z"/>
  <path class="cls-1" d="m281.96,85.9c84.4-16.5,169.6-24.8,256-24.3,4.7,34.5-2.8,34.4-25.2,57-22.5,22.4-19.5,28-53.8,25.5-.9-19,.3-37.4-.6-56.4h-176.2c0-.5-.1-1.2-.2-1.8h0Z"/>
  <path class="cls-1" d="m946.06,314.5c0-21.1-.1-42.5.1-63.6,0-3.7-1.2-6.1-3.8-8.7-12.1-11.8-24-23.7-35.9-35.8-7.1-6-17.3-1.7-26.2-3-1-4.7-.7-9-.3-13.8,11.4.5,34.8-4.1,43.1,2.5,17.8,23.4,35.7,46.7,53.6,70,12,12.3-40.1,101.8-47.6,122.4-5.6-21.6,6.3-71.6-5.7-87.9-23.2-16.9-15.3-31.9-16.2-56.8-1.5-10.3-13.1-20.7-24.3-18.7-4.8,1.5-2.1-11.6-2.8-13.6,7.7-.5,17.8-2.9,24.4,1.5,11.8,11.8,23.7,23.6,35.6,35.4,7.4,20,.6,45,2.9,66.6,0,2.7-.8,4.4-2.8,6.3-10,18.7,25.1,11.2,5.9-2.8Z"/>
  <path class="cls-1" d="m137.96,179.3c1,40.1.1,80.3.5,120.4-2,12.6-16.9,19.3-24.1,29.3-3.3,4.3-8.2,3.4-13,3.4-9-.1-6.9,1.3-10.6-7.1-7.2-16.4-13.8-33-21-49.4-9-11.9,58-79.9,66.9-97.5.5.3.9.6,1.3.9h0Z"/>
  <path class="cls-1" d="m440.96,795.8c-4.7-4.2-8.9-8-13.7-12.3,91-89.3,50.5-78.8,179.5-77.6,28.5-15.7,48.9-48.1,74.4-69.5,14-10.6,7.5-25.1,8.9-40.6h25.9c-.2,10.5,3.3,23.5-1.8,32.9-32.7,28.4-60,68.3-95.6,90.9-127.4-1.7-87.7-9.7-177.6,76.2h0Z"/>
  <path class="cls-1" d="m490.46,751.8c11.9,12.7,28.1,23.7,36.2,38.7-.5,23.9.6,47.6-.5,71.5-28.8-19.3-54.9-42-82.1-63.7,15.6-15.6,30.8-30.8,46.4-46.5Z"/>
  <path class="cls-1" d="m108.66,363.8c-4.3-9.2-8.5-18-13.1-27.8,21,3.9,28.7-14.3,42.5-26.2,9.4-41.2.6-88.5,3.4-131.6.4-10.6,11-16.9,16.3-25.3,2.4.5.8,4.7,1.3,6.7.1,50.1-.1,100.2.2,150.3,0,2.8-.9,4.6-2.7,6.4-16.3,16.1-31.2,31.3-47.9,47.5Z"/>
  <path class="cls-1" d="m471.76,733.3c-15.8,15.8-31.4,31.4-47.3,47.3-5-4.5-10.1-9.3-15.5-14.2,11.6-11.8,22.9-23.3,34.7-35.4-5.8-4.8-9.8-13.5-18-13.2-20.2-.1-40.4-.2-60.6,0-10.7,0-14.3-10.7-22.3-17.1,32.5.9,67.3-4.1,98.6,1.8,10,10.4,20.9,20.2,30.4,30.8h0Z"/>
  <path class="cls-1" d="m312.06,665.8c50.7,3.6,106.6-7.2,154.9,4.2,11.2,11.6,23.1,22.6,34.3,34.2l-12.5,12.5c-11.7-11.4-23.2-22.9-34.7-34.5-23.6-6.7-51.2-.6-76.1-2.6-16.7,0-33.4-.1-50.1.1-6.7.2-14.9-9-15.8-13.9h0Z"/>
  <path class="cls-1" d="m530.06,859.8c0-22.8-.1-45.6.1-68.3,0-3.6-1-6.2-3.6-8.8-11-10.8-22.1-21.8-32.7-32.9,3.9-4.1,7.7-8,11.6-12,15,17.2,37.4,31.4,47.9,51.2-.1,16.7-.1,33.4,0,50,.4,6.6-18.1,19.2-23.3,20.8h0Z"/>
  <path class="cls-1" d="m474.96,731.4c-13.7-10.5-22.8-28.7-38.7-34.5-30.7.1-61.4.1-92.1.1-8.8,0-11.5-8.2-18-13.8,41.7,1.2,85.6-4.2,126.1,2,11.3,11.7,23.6,22.3,34.4,34.4-3.7,3.7-7.4,7.5-11.7,11.8Z"/>
  <path class="cls-1" d="m507.26,735.9c4.3-4.7,7.9-8.7,11.8-13,19.5,18,37.4,37.3,56.5,55.8,2.3,2.3,3.4,4.5,3.4,7.8-1,30.6,6.9,35.4-22.7,53.3.5-75.1,3.3-49.7-49-103.9Z"/>
  <path class="cls-1" d="m364.16,721c20.1-.7,40.3,0,60.5-.3,6.9-.3,9.4,6.1,14.7,10.1-10.8,11.1-21.5,21.9-32.7,33-13.9-13.9-32.6-27.9-42.5-42.8Z"/>
  <path class="cls-1" d="m281.86,147.8h19.3c1.1,4.4,1.3,66.7.2,72-6.7-7.2-17.1-13.4-20.1-22.9.5-16.4-.8-32.9.6-49.1Z"/>
  <path class="cls-1" d="m300.96,249.7c-17.1-16.6-21.9-17.1-19.7-42.4,7.4,3.3,12.5,11.6,18.9,16.9,3.2,6.7,2.9,19.2.8,25.5h0Z"/>
  <path class="cls-1" d="m773.46,244.8c11.2.5,17.3-3.7,13.8,11.7-7.3,3.3-.2,14.9-6.5,15.9-4.8-.5-2.2-6.7-3.1-9.9-4.3-10.3-4.9-4.1-4.2-17.7Z"/>
  <path class="cls-1" d="m736.26,244.8h14.1c1.9,9.8-2.6,10.8-4.6,19-.9,2.6,1.7,8.6-2.2,8.9-3.9-.9-2.3-5.7-2.9-8.6-1.7-7.6-7.2-10.5-4.4-19.3h0Z"/>
  <path class="cls-1" d="m810.36,162.8c-2.4-11,5.4-12.5,5.3-21.2.2-2.2-.9-5.8,2.3-6,3.8-.1,2.5,4.3,2.8,6.7-.1,8.9,6.1,8.5,4.2,20.5h-14.6Z"/>
  <path class="cls-1" d="m857.16,272c-5.2,2.3-4.7-3.1-4.5-6.3.4-9.5-6.3-8-4.3-20.9h14.2c1.9,16.3-7.4,9.8-5.4,27.2h0Z"/>
  <path class="cls-1" d="m862.56,162.8h-13.9c-2.4-11.2,2.8-10.7,4.1-19.3.4-2.9-1.4-7.3,2.6-8.1,1.6.3,2.5,2.9,2,4.5-1,10.9,7.4,9.2,5.2,22.9h0Z"/>
  <path class="cls-1" d="m750.46,162.8h-14.5c-2.1-11.9,3.3-10.3,5-19.3.6-2.6-1.3-7.2,2.4-7.9,1.5.2,2.8,2,2.4,3.7-.4,8.7,5.9,13.7,4.7,23.5h0Z"/>
  <path class="cls-1" d="m824.86,244.8c1.8,14.4-4.4,10-4.4,20.4-.4,2.4,1.1,6.8-2.3,7.1-4.4-.5-1.6-6.7-2.5-9.6-.2-1.5-.5-3.5-1.5-4.3-9.2-11.1-1.8-16.9,10.7-13.6h0Z"/>
  <path class="cls-1" d="m787.46,162.8h-13.7c-3.7-11.3,4.6-12.3,4.5-21.2-2-5.3,5.6-9.6,4.9-.1.3,7.8,6.8,12.5,4.3,21.3Z"/>
  <path class="cls-1" d="m724.06,210.7v-14.4c8.8.3,8.1,13.3,0,14.4Z"/>
  <path class="cls-1" d="m564.26,738.4c-.4,5-8.1,4.9-8.1-.4.4-4.9,8-4.1,8.1.4h0Z"/>
  <path class="cls-1" d="m885.16,296.3c-4.9.1-5.5-7.2-.3-7.5,4.4-.1,5,7.3.3,7.5h0Z"/>
  <path class="cls-1" d="m544.16,207.1c0,4.6-6.9,5.3-7.4.4-.4-4.6,7.2-5,7.4-.4h0Z"/>
  <path class="cls-1" d="m540.16,322.6c.2,5-7.6,4.7-7.2,0,0-4.1,7.3-4.2,7.2,0h0Z"/>
  <path class="cls-1" d="m543.06,686.6c4.8.2,4.1,7.4-.4,7.3-4.7-.2-4.4-7.5.4-7.3h0Z"/>
  <path class="cls-1" d="m258.36,269.3c5.3-.2,5.8,6.6,1.1,7.1-4.7-.4-4.4-5.4-1.1-7.1h0Z"/>
  <path class="cls-1" d="m206.86,164.8c-1.9,3-7.3,3.9-7.6-.8.2-4.8,7.6-4.2,7.6.8h0Z"/>
  <path d="m772.06,505.8c-10.1-59.4,56.2-92.9,65.2-147.1,2.1-9.7-1.9-17.3-6.4-25.6.4-12.3-1-24.8.6-36.9,48,1.9,58.9,55,41.3,92.1-14.2,29.3-36.7,53.5-54,80.9-7.5,11-14.5,22.4-21.6,33.7-5.9,6.3-16.5,1.4-25.1,2.9Z"/>
  <path d="m743.46,397.3c24.2,16.3,22.6,49.3,17.1,74.9-4.4,20.6-22.8,35.7-44.1,35.3-.5-11.4-.1-22.6-.3-34,9.1-19.2,14.7-61.9-18.3-57.7-1.7-9.6-.4-19.4-.7-29.1.1-4.6.6-5,5.2-5.4,22.8,2.6,24.2-28.5,16.2-42.9-5.6-11.6-1.3-26.6-2.3-39.5,47.4-2.4,64.7,75.1,27.2,98.4Z"/>
  <path d="m820.66,295.8c1,11.6.1,23,.4,34.6,0,2.5-.7,4.5-2.4,6.6-7.3,9.2-4.8,21.7-5.5,32.5,1.5,8.5-30.8,2.4-37.6,4.2-2.4,0-4.2-.6-4.2-3.4-3.2-33.1,9.5-74.9,49.3-74.5h0Z"/>
  <path d="m706.06,507.5c-26.8.9-44.7-23.4-45-48.5,1-6.4-5.1-23.5,4.8-23.1,7.1,1.7,35.5-4.9,33.4,5.5-.2,11.2.5,21.7,7.6,30.6-.5,11.8.6,24-.8,35.5Z"/>
  <path d="m706.06,298.7v37.5c-7.8,5.5-6.6,16.6-6.9,25.2-.7,8.4-27.9,2.1-35.3,4-2,0-3.5-.8-3.6-3-3.3-30.1,11.5-63.2,45.8-63.7Z"/>
  <path d="m502.66,681.4c-8.2.6-8.8-13.1-.7-12.5,3.4.4,5.1-1.3,7.1-3.3,12.2-12.1,24.4-24.1,36.6-36.3,1-1,1.4-2.6,1.8-4,1.2-8.3,14.2-6.1,13.3,1.9-2.7,12.3-12-.2-17.8,9.1-8.4,11.1-32.2,26.1-34.5,38.2.8,3.9-2,6.8-5.8,6.9Zm54.9-54.6c.2-4.8-7.5-4.7-7.3,0,0,4.4,7.4,4.3,7.3,0Z"/>
  <path d="m813.66,195.8h-5c-.5-3.8-4.1-8.8-7-4-1.2,4.6-.3,9.8-.6,14.5-1,4.8,4.2,12.3,6.7,4.7.6-4.5,1.7-4.5,6-4.2,3.7,13.8-16.4,17.7-18.3,4.9-.5-6.9-.4-13.9.3-20.8,2.4-11.2,20.1-6.8,17.9,4.9Z"/>
  <path d="m743.66,232.7c-13.7.5-12.2-21.1.3-20.4,13,.1,13.2,21-.3,20.4h0Z"/>
  <path d="m785.06,184.6c5-.7,5.4-.6,5.5,3.2-1.7,7,4.8,34.5-5.5,31.6v-34.8Z"/>
  <path class="cls-1" d="m557.56,626.8c.1,4.3-7.3,4.4-7.3,0-.3-4.7,7.4-4.8,7.3,0Z"/>
</svg>