<?xml version="1.0" encoding="UTF-8" standalone="no"?>
<!-- Generator: Adobe Illustrator 27.3.1, SVG Export Plug-In . SVG Version: 6.00 Build 0)  -->

<svg
   version="1.1"
   id="_圖層_1"
   x="0px"
   y="0px"
   viewBox="0 0 1049.3 939.5"
   style="enable-background:new 0 0 1049.3 939.5;"
   xml:space="preserve"
   sodipodi:docname="JV32.svg"
   inkscape:version="1.4.3 (0d15f75, 2025-12-25)"
   xmlns:inkscape="http://www.inkscape.org/namespaces/inkscape"
   xmlns:sodipodi="http://sodipodi.sourceforge.net/DTD/sodipodi-0.dtd"
   xmlns="http://www.w3.org/2000/svg"
   xmlns:svg="http://www.w3.org/2000/svg"><defs
   id="defs11" /><sodipodi:namedview
   id="namedview11"
   pagecolor="#ffffff"
   bordercolor="#000000"
   borderopacity="0.25"
   inkscape:showpageshadow="2"
   inkscape:pageopacity="0.0"
   inkscape:pagecheckerboard="0"
   inkscape:deskcolor="#d1d1d1"
   inkscape:zoom="1.2421501"
   inkscape:cx="524.49379"
   inkscape:cy="469.75"
   inkscape:window-width="2560"
   inkscape:window-height="1369"
   inkscape:window-x="-8"
   inkscape:window-y="-8"
   inkscape:window-maximized="1"
   inkscape:current-layer="_圖層_1" />
<style
   type="text/css"
   id="style1">
	.st0{fill:#FFFFFF;}
</style>
<path
   d="M530.1,0.4c114.3-1.5,227.8,15.4,338.7,41.7c40.6,12.2,59.4,61,87.9,89.9c17.7,28.5,103.8,115.4,91.4,142.1  c-32.1,88.1-74.6,172.2-124,251.8c-98.6,161.7-234.4,296.7-385.5,409.6c-15.6,17.8-55.2-28.9-71.3-37.1  c-79.5-61-153.6-128.8-219-204.8C155.9,586.1,80.4,463.8,24.9,333.3C19,310.3-9,274.8,3,253.2c42.8-66.6,95.5-125.8,145.6-186.8  c8.6-11,18.9-20.2,33-22.9C295.6,15.2,412.5-0.2,530.1,0V0.4L530.1,0.4z M399.2,540.3c129.8,5.2,296.1-10.9,408.1,5.6  c-10.7,15-21.5,30-32,45.1c-5.5,8.4-16.9,3.4-25.2,4.8c-1.5,9.8,2.2,27.7-3.3,35c-35.1,35.2-70.4,70.3-105.4,105.6  c-12.3,10-63-2.8-75.7,6c-5.3,7.6-16.8-2.1-10.2-8.7c2.8-3,6.9-3.2,9.6,0.2c3.8,4.8,9.6,2.5,14.7,2.9c17.2-2.5,48.1,5.5,61.1-4.5  c33.6-34.4,68.1-68.1,102.1-102.2c6.7-9.3,2.5-23.2,2.8-34.3c-9.2,0.3-17.1-0.9-26.3,0.7c-1.6,11.4,3.7,25.3-3.1,34.9  c-29,29.1-58.3,58-87.2,87.2c-3,3-5.8,4.3-10,4.3c-31.1,0-62.3-0.4-93.5,0.1c15.8,23,44.4,37.7,56.4,62.1  c0.1,11.6-0.7,22.6,0.4,34.2c25.7-18.4,19.6-22.1,20-50.7c-4-2.9-6.8-8.3-2.4-12.1c8.7-6.2,14.3,7.8,6.1,11.9v30  c43.2-24.2,232.7-240.5,252.8-292.2c-16.9-0.4-33.8,0.2-51.4-0.3c29-46.2,16.7-39.2,70.9-39c0.6,2.6,1,4.8,1.7,7.9  c9.1-14.8,17.5-29.8,26.3-44.8c4.4-35,0.3-71.7,1.7-107.2c-1.5-10.2-13.2-15.1-19.4-23.1c-4.5,1.5-9.9-1.8-10-6.5  c1.6-12.4,17.1-6.6,14,4.7c6.1,8.6,18.7,14,18.6,25.5c-0.1,31.8-0.1,64.1-0.1,95.8c23.4-32.5,10.6-74.6,13.7-112.1  c-1.3-12.4-20-16.7-20.8-29.3c-0.9-20.5,7.8-56.1-23.9-52.8c1.3,28-14,8.1-12.1,28.8c-0.1,5.7-6.3,8.4-5.1,14.1  c0.2,3.4,0.1,8.5-4,9.3c-7.3,2.1-12.3-2.1-11.1-10.2c-1.6-10.8-6.6-5.6-5.1-23.1h-12.2c1.6,11.1-2.2,13.4-4.7,22.1  c0.3,5.7-0.3,12.1-7.5,11.6c-7.6,0.7-8.2-5.8-8-11.7c-2.9-10.8-6.1-3.8-5-21h-12.1c2.1,20.3-6.1,12.2-4.9,28.7  c-0.7,7.5-15,7.6-15.4-0.2c0.8-10.2-7.1-17.7-4.9-28.4c-19.4-4.4-7.7,7.9-15.1,17.2c-4.3,4.6,1.1,13.5-5.8,16.3  c-3.1,1.3-8.5,0.3-10.3-2c-3.5-4.8,0.5-11.4-4.1-15.9c-2.5-4-1.7-10.6-2.2-15.1c-8.5-2.8-12.8-4.5-12.4-14.1  c0-17.9-0.1-35.9-0.1-53.8c-1.1-8.4,4.2-13.9,12.8-13.2c-1.4-19.5,2.2-11.4,4.6-23.1c-0.5-5,0.4-10.9,6.5-11.1  c8-1.3,9.7,5.1,9.1,11.7c2.7,10.8,6.4,6.1,5,22.3c4.8-0.1,7.5,0.4,12-0.6c-1-10.9,0.9-12.4,4.8-21.4c0.3-4-1-9.4,3.6-11.4  c8.2-4,13.4,3.1,12,11c2,10,6.3,6.8,4.7,21.8c19.1,4.6,6.8-8.1,15.1-16.3c4.4-5.5-1.4-18.2,9.7-17.2c7.2-0.5,8.5,5.1,8,11.2  c1.3,10.1,6.5,7.3,4.7,22.6h12.1c-2.2-12.6,5.2-16.5,5-27.5c0.9-9.3,16.5-7.8,15.1,2.1c-1.9,6.9,5.5,9.6,5.1,15.9  c0.6,3.2-1.8,9.3,1.9,10.1c29.5,8.3-20,28.1,47.4,21.1c-19.6-20.8-50.4-77.7-74.2-84.6c-91.4-23.2-185.7-38.3-280-39.3  c0.2,9.5-0.2,19.8,0.1,37.6c-1,9.5-12.2,14.6-17.7,21.9c-49.9,47.8-28.5,44.4-98.9,44c2.6,5.6,2.2,13.7,6.4,16.4  c19-1.6,40.4,3.5,58.2-2.2c52.1-50.2,30.7-47.3,105-46.5c5,0.4,6,0.1,7.3-4.9c6.7-11.7,5-39.9,23-37.7c22.9,1.6,45.8,4,68.4,8.1  c18.3-3.7-33.7,113-35.4,128.5c-35.3,96.6-64.2,199.2-103.1,292.6c-13.2-41.8-30.3-84.2-39.1-126.6c23.2-72.2,47.3-144.2,70.2-216.6  c-38.7-4.5-35.1,1.4-61,26.2c2,5.2,0.5,11.3-5.6,11.6c-9,0.8-10.3-13.9-0.5-13.4c3.3,0.1,5.2-1.4,7.2-3.4  c24.5-24.5,19.7-26.3,53.1-25.5c12.3,0.6,7.4-0.5,13.1-15c-52-1.8-41.9-6.5-78,30.2c-4,3.8,0,13.1-8.6,12.5  c-8.7-0.4-8-13.7,0.8-13.2c13-4,22.1-21.2,33.3-29.7c13.7-9.2,33.8-1.2,49.8-3.9c7.4,0.2,6-11,9-16.3c-72.7-1.5-55.6-6.6-105.9,44.5  c-7.4,8.2-59.5,2-61.9,3.9c3.5,6.6,1.9,19.2,11.4,17c16.1,1.8,35-3.9,49.6,2.7c11.3,15.6,44.1,34.6,44,53c1.3,10.7-4,26.2,2.8,33.9  c10.8,15.1-20.2,14.1-8.6,0c5.9-9.9,0.6-23.9,2.5-35.3c-2.9-17.1-31.2-33.8-42.2-48.6c-1.9-2-4-2.5-6.6-2.5  c-15.5,0.4-30.7-0.6-46.2,0.5c3.4,6.7,1.7,20.5,11.6,18.1c12.2,1.7,27.4-4.3,37.8,3.3c8.3,8.7,16.8,17.4,25.4,25.8  c9.7,10.5-2.9,55,6.2,65c11,15.6-19.9,15-9.2-0.1c3.1-2.1,3.1-4.6,3.1-7.6c-1.7-17.7,3.4-38-2.1-54.5  c-28.7-29.5-23.3-31.1-66.1-28.3c31.5,97.5,62.8,194.5,94.4,292.3c-23.2,1.2-45.5,0.3-68.6,0.6c-11.9,0-12.2-0.2-16.1-11.3  c-24.8-73.7-54-146.5-75.8-221c0.1-42,0.1-83.9,0.1-125.9c33.6-2.9,71.8,6,103.3-3.5c17.7-17.9,35.5-35.6,53.4-53.3  c6.4-10.4,2.3-30.7,2.3-43.2h-16.9c-1.7,12.6,4.2,26.6-4.5,36.5c-15.5,15.4-30.9,30.9-46.3,46.5c-33.4,6.7-71.4,1.3-105.8,3  c-1.7,107.1,2.9,213.7,1.5,320.9c4,66.5-36.7,130.8-109,126.3v-80.4c11.2-6,20.7-13.3,21.7-26.5c4.4-31.3,1.7-63.2,2.5-94.7  c-1.8-46.1,3.7-94.5-1.8-139.6c-7.3-9.5-21.8-16.1-22.5-28.9c0-25.8,0.5-51.3-0.3-77.1h-16.3c2.6,2.2-5.2,120.6,3,119.7  c7.2,6-2.9,15.9-9.2,10.1c4.2-38.4,3-86.7,2.8-129.8h-11.9c-0.8-18.5,0.3-36.5-0.6-54.7c-5.3,1.2-10,0.4-8.8,6.7  c0.1,74.9-0.1,149.9,0.2,224.8c0,4.6-1.4,7.9-4.6,11.1c-21.5,25.5-54.3,45.9-69.6,74.8c0.7,30.2-5.5,55.9,17.8,79.7  c0-24.7,0.1-48.6-0.1-73.2c0-3.3,1-5.5,3.3-7.8c5.9-5.7,11.6-11.7,17.3-17.6c-1.2-5.4,2.4-11.4,8.5-9.8c6.8,2,5.6,13.4-2.5,12.5  c-8.8,1-13,11.4-19.9,16.1c-2.5,2.3-3.5,4.8-3.5,8.3c0.2,24.2,0.2,48.5,0.1,72.7c0,3.7,0.7,6.9,2.8,9.9  c13.8,18.9,25.5,39.8,40.4,57.7c5.1-48.7-16.4-59.2,36.9-44.3c1,9.1,0.6,75.8-0.6,80.2h-9.1c2.8,5.4,23.2,36.9,28.6,34.2  c51.2-1.5,107.1,3.7,155.1-3.4c7.1,4.9-2.2,15.9-8.1,9.4c-47-7.7-99.7-1.4-148.3-2.3c5.6,4.9,7.9,12.9,15.7,13  c55.9-0.1,111.8-0.1,167.7,0c17.3-7.8,28.9-27.7,43.9-39.8c2.3-3.3,8-6.3,8.2-10H360.1c17.9-15.6,32.1-33,39.4-55.5L399.2,540.3  L399.2,540.3z M233,96.4c-16.2,2-34.2,5.4-44.8,19.2c-7.7,11.9-22.5,21.2-25.6,35.2c0,52.4-0.4,104.7,0,157.1c0,5-1.4,8.6-4.9,12  c-12.7,12.4-25.1,25.1-37.6,37.7c-12.2,8.4-7.8,14.6-1.5,26.2c19.8-21.6,47.3-40.4,61.7-65.1c-0.1-28.8,0-57.6-0.1-86.5  c0-3.4,0.3-6.7-3.2-9.3c-2.9-2.1-2.1-6.6,0.5-8.9c5.8-5.6,15.3,4,8.9,9.3c-7.6,29.1-0.5,63.5-2.6,94.3c0,4.4-1.2,7.5-4.3,10.6  c-18.5,18.3-36.8,36.8-55.1,55.2c-7.6,5.6,2.8,13.5,4.8,20.4c23-26.5,54.7-47.9,72.3-77.1c0.4-50.2,0-100.5-0.3-150.8  c0-1.8,0.7-6.4-2.4-7.1c-7.2-5.8,2.8-15.9,9.1-10.1c4.1,3.9,1.5,10.2-3.7,12c0.5,52.1,0.7,104.2,0.8,156.3  c-16.4,30.9-51.4,52.3-73.9,80.1c8.5,16.6,17.6,32.6,27.3,48.2c1.8-13.4,0.8-27.1,0.6-40.5c0.1-22.9,55.3-60.8,71.3-81.9  C238.8,256.5,230.9,174.6,233,96.4L233,96.4L233,96.4z M524.5,686.7c5.6,10.6-11.1,15.5-12.1,4.5c0-3.6,3.2-6.7,7-6  c32.6-24.6,61.2-60,91.4-89c-18.3-0.8-36.5,0-54.8-0.4c-2.6,0-4.2,1.1-5.9,2.8c-17.7,17.8-35.5,35.6-53.3,53.3  c-2.3,2.3-4.3,4.3-3.6,8c0.4,2.5-1.5,4.6-4,5.5c-9.8,3.3-11.8-13.9-1.3-12.3c2,0.3,3.4,0.1,5.1-1.6c18.1-18.9,37.1-36.5,54.8-55.8  c-10.4,1.4-21.2-3.5-29,3.8c-15,15.3-30.4,30.3-45.4,45.5c-2.7,2.8-5.5,3.8-9.3,3.8c-56.3,0.1-112.5-0.6-168.8,0.2  c8.8,8.1,8.6,15.4,21.2,13.6c49.8,3.2,103.8-6.3,151.6,3.6c14.1,11.2,24.5,30.9,41.6,36.5c34-2.7,71.6,5.1,103.9-3.1  c23.3-23.4,46.8-46.7,70.2-69.9c6.8-9.2,2.2-22.9,2.9-34c-13.6,0-26.8,0.2-40.3,0c-3.8-0.1-6.5,1.1-9.2,3.8  c-16.7,16.8-33.7,33.4-50.3,50.2c-10.8,13.2-29.3,25.5-36.6,40.4c0.1,3.6-3.2,6.8-6.7,6.7c-8.1-0.3-8.6-13.2,0-13.3  c28.4-14.7,87.2-85.1,91.3-87.8c-6.8,0.9-14.9-2.3-20.4,2.2C584.2,627.5,555.3,658.2,524.5,686.7L524.5,686.7L524.5,686.7z   M723.1,188.1c13.1,2.6,16.9,20.3,6.1,27c-2.3,1.6-6.4,2.1-6.1,5.6c0.8,5.6-2.5,16.4,5.8,16.9c46.5,1.5,93.1,0.4,139.6,0.6  c11.4,1.1,3.3-50.9,5.6-61.1c0.9-5.4-3.5-8.8-8.7-7.8h-137C719.3,169.7,724.3,182.2,723.1,188.1z M282,85.9c0.1,0.6,0.1,1.3,0.2,1.9  h176.2c0.9,19-0.3,37.4,0.6,56.4c34.4,2.5,31.2-3.1,53.8-25.5c22.3-22.6,29.9-22.6,25.2-57C451.6,61.1,366.4,69.4,282,85.9L282,85.9  z M946.1,314.5c19.2,13.7-16.4,22-5.2,2.1c5.5-20.2,0.3-43.9,2.1-65.2c0-2.9-0.9-5-2.9-6.9c-11.9-11.7-23.8-23.5-35.6-35.4  c-6.7-4.4-16.8-2-24.4-1.5c0.7,2.1-2.1,15.1,2.8,13.6c11.2-2,22.8,8.4,24.3,18.7c1.2,26-7.5,39,16.2,56.8c12,16.3,0.1,66.2,5.7,87.9  c7.5-20.4,59.6-110.2,47.6-122.4c-18-23.3-35.8-46.6-53.7-70c-8.4-6.7-31.6-2-43.1-2.5c-0.3,4.8-0.7,9.1,0.3,13.8  c8.9,1.3,19.2-3,26.2,3c11.9,12,23.8,24,35.9,35.8c2.6,2.5,3.8,5,3.8,8.7C946,272.1,946.1,293.5,946.1,314.5L946.1,314.5  L946.1,314.5z M138,179.3c-0.4-0.2-0.9-0.5-1.3-0.8c-9,17.8-75.7,85.3-66.9,97.5c7.2,16.4,13.9,33,21,49.4c3.7,8.4,1.5,6.9,10.6,7.1  c4.8,0,9.7,1,13-3.4c7.2-10.1,22.1-16.7,24.1-29.3C138.1,259.6,139,219.4,138,179.3L138,179.3z M440.9,795.8  c89.7-85.8,50.9-78,177.6-76.2c35.6-22.6,63-62.5,95.6-90.9c5.1-9.4,1.6-22.4,1.8-32.9h-25.8c-1.4,15.6,5,29.9-8.9,40.6  c-25.5,21.5-45.9,53.8-74.4,69.5c-128.9-1.3-88.8-11.3-179.5,77.6C432,787.8,436.3,791.6,440.9,795.8L440.9,795.8L440.9,795.8z   M490.5,751.8c-15.6,15.7-30.8,30.9-46.4,46.5c27.2,21.7,53.3,44.4,82.1,63.7c1.1-23.9,0-47.6,0.5-71.5  C518.6,775.6,502.4,764.6,490.5,751.8L490.5,751.8z M108.7,363.8c16.8-16.2,31.6-31.4,47.9-47.5c1.9-1.8,2.8-3.7,2.7-6.4  c-0.3-50.1-0.1-100.2-0.2-150.2c-0.5-2.1,1-6.1-1.3-6.7c-5.3,8.4-15.9,14.7-16.3,25.3c-2.9,43.1,6,90.4-3.4,131.6  c-13.8,11.9-21.5,30.1-42.5,26.2C100.2,345.8,104.3,354.6,108.7,363.8L108.7,363.8z M471.8,733.3c-11.3-9.8-22.8-28.2-36.4-33.1  c-30.9,0.4-61.6-0.5-92.5,0.5c8,6.4,11.6,17.1,22.3,17.1c20.2-0.2,40.4-0.1,60.6,0c8.2-0.3,12.2,8.4,18,13.2  c-11.8,12-23.1,23.5-34.7,35.4c5.4,5,10.5,9.7,15.5,14.2C440.5,764.7,456,749.1,471.8,733.3L471.8,733.3L471.8,733.3z M312.1,665.8  c0.8,4.9,9.2,14.1,15.8,13.9c16.7-0.1,33.4-0.1,50.1-0.1c24.9,2,52.6-4.2,76.1,2.6c11.5,11.6,23,23.1,34.8,34.4l12.5-12.5  c-13.3-10.6-28.5-35.2-44.4-38.5C408.7,665.8,360.4,665.8,312.1,665.8L312.1,665.8L312.1,665.8z M530.1,859.8  c5-1.3,23.8-14.4,23.3-20.8c-0.1-16.7-0.1-33.4,0-50c-10.5-19.7-32.9-33.9-47.9-51.2c-3.9,4.1-7.7,7.9-11.6,12  c10.6,11.1,21.8,22.1,32.7,32.9c2.6,2.5,3.6,5.2,3.6,8.8C530,814.2,530.1,837,530.1,859.8L530.1,859.8z M475,731.4  c4.2-4.3,8-8.1,11.6-11.8c-10.8-12.1-23.1-22.7-34.4-34.4c-40.5-6.2-84.4-0.8-126.1-2c6.6,5.6,9.2,13.8,18,13.9  c30.7-0.1,61.4,0,92.1-0.1C452.2,702.7,461.4,720.9,475,731.4L475,731.4z M507.4,735.9c52.4,54.3,49.4,28.8,49,104  c29.7-18,21.7-22.7,22.7-53.3c0.1-3.3-1.1-5.5-3.4-7.8c-19.1-18.5-37-37.8-56.5-55.8C515.2,727.3,511.6,731.2,507.4,735.9  L507.4,735.9L507.4,735.9z M364.2,721c10,14.9,28.6,28.9,42.5,42.8c11.2-11.1,21.9-21.9,32.7-33c-5.3-4-7.8-10.4-14.7-10.1  C404.5,721,384.3,720.3,364.2,721z M281.9,147.8c-1.4,16.2-0.1,32.8-0.6,49.1c3.1,9.4,13.4,15.6,20.1,22.9c1.1-5.3,0.9-67.6-0.2-72  L281.9,147.8L281.9,147.8z M301,249.7c2.1-6.3,2.4-18.8-0.8-25.6c-6.4-5.3-11.4-13.5-18.9-16.9C279.1,232.6,284,233.1,301,249.7  L301,249.7L301,249.7z M773.5,244.8c-0.7,13.6,0,7.4,4.2,17.7c0.8,3.2-1.7,9.4,3,9.9c6.2-1-0.8-12.7,6.5-15.9  C790.8,241.1,784.7,245.3,773.5,244.8L773.5,244.8L773.5,244.8z M736.3,244.8c-2.7,8.8,2.7,11.7,4.5,19.2c0.6,2.9-1.1,7.7,2.9,8.6  c3.9-0.3,1.3-6.3,2.2-8.9c1.9-8.1,6.5-9.2,4.6-19L736.3,244.8L736.3,244.8L736.3,244.8z M810.4,162.8H825  c1.9-12.1-4.3-11.5-4.2-20.5c-0.3-2.4,1-6.8-2.8-6.7c-3.2,0.2-2.1,3.8-2.3,6C815.8,150.3,808.1,151.8,810.4,162.8z M857.3,272  c-2-17.5,7.3-10.8,5.3-27.2h-14.2c-2,13,4.7,11.3,4.3,20.9C852.6,268.9,852.1,274.4,857.3,272L857.3,272L857.3,272z M862.6,162.8  c2.3-13.8-6.1-12-5.1-22.9c0.4-1.6-0.5-4.2-2-4.5c-4.1,0.8-2.2,5.2-2.6,8.1c-1.3,8.6-6.4,8.2-4.1,19.3L862.6,162.8L862.6,162.8z   M750.5,162.8c1.3-9.8-5-14.8-4.7-23.5c0.4-1.7-0.9-3.5-2.4-3.7c-3.7,0.7-1.8,5.3-2.4,7.9c-1.7,9-7.1,7.5-5,19.3H750.5L750.5,162.8z   M825,244.8c-12.6-3.3-20,2.5-10.8,13.7c1,0.8,1.3,2.8,1.5,4.2c0.9,2.9-1.9,9.1,2.5,9.6c3.5-0.3,1.9-4.8,2.4-7.1  C820.5,254.8,826.8,259.1,825,244.8L825,244.8L825,244.8z M787.5,162.8c2.6-8.8-4-13.5-4.3-21.2c0.7-9.6-6.9-5.3-4.9,0.1  c0.1,8.9-8.2,9.9-4.5,21.2L787.5,162.8L787.5,162.8z M724.1,210.7c8.1-1.2,8.8-14.1,0-14.4V210.7z M564.3,738.4  c-0.1-4.6-7.8-5.3-8.1-0.4C556.2,743.3,563.9,743.4,564.3,738.4L564.3,738.4z M885.2,296.3c4.7-0.2,4.1-7.6-0.4-7.5  C879.7,289.1,880.3,296.4,885.2,296.3L885.2,296.3z M544.3,207.1c-0.2-4.5-7.8-4.2-7.4,0.4C537.4,212.3,544.2,211.7,544.3,207.1  L544.3,207.1z M540.2,322.6c0.1-4.3-7.2-4.1-7.2,0C532.6,327.3,540.4,327.6,540.2,322.6L540.2,322.6z M543.1,686.6  c-4.8-0.3-5,7-0.4,7.3C547.2,694,547.9,686.8,543.1,686.6L543.1,686.6z M258.4,269.3c-3.3,1.7-3.6,6.7,1.1,7.1  C264.3,275.9,263.8,269,258.4,269.3z M206.9,164.8c0-5-7.3-5.6-7.5-0.8C199.6,168.7,205.1,167.8,206.9,164.8L206.9,164.8z"
   id="path1" />
<path
   class="st0"
   d="M543.1,686.6L543.1,686.6"
   id="path2" />
<path
   d="M772.1,505.8c-10.1-59.4,56.2-92.9,65.2-147.1c2.1-9.7-1.9-17.3-6.4-25.6c0.4-12.3-1-24.8,0.6-36.9  c48,1.9,58.9,55,41.3,92.1c-14.2,29.3-36.7,53.5-54,80.9c-7.5,11-14.5,22.4-21.6,33.7C791.3,509.2,780.7,504.3,772.1,505.8z"
   id="path3" />
<path
   d="M743.5,397.3c24.2,16.3,22.6,49.3,17.1,74.9c-4.4,20.6-22.8,35.7-44.1,35.3c-0.5-11.4-0.1-22.6-0.3-34  c9.1-19.2,14.7-61.9-18.3-57.7c-1.7-9.6-0.4-19.4-0.7-29.1c0.1-4.6,0.6-5,5.2-5.4c22.8,2.6,24.2-28.5,16.2-42.9  c-5.6-11.6-1.3-26.6-2.3-39.5C763.7,296.5,781,374,743.5,397.3L743.5,397.3z"
   id="path4" />
<path
   d="M820.7,295.8c1,11.6,0.1,23,0.4,34.6c0,2.5-0.7,4.5-2.4,6.6c-7.3,9.2-4.8,21.7-5.5,32.5c1.5,8.5-30.8,2.4-37.6,4.2  c-2.4,0-4.2-0.6-4.2-3.4C768.2,337.2,780.9,295.4,820.7,295.8L820.7,295.8L820.7,295.8z"
   id="path5" />
<path
   d="M706.1,507.5c-26.8,0.9-44.7-23.4-45-48.5c1-6.4-5.1-23.5,4.8-23.1c7.1,1.7,35.5-4.9,33.4,5.5c-0.2,11.2,0.5,21.7,7.6,30.6  C706.4,483.8,707.5,496,706.1,507.5z"
   id="path6" />
<path
   d="M706.1,298.7v37.5c-7.8,5.5-6.6,16.6-6.9,25.2c-0.7,8.4-27.9,2.1-35.3,4c-2,0-3.5-0.8-3.6-3  C657,332.3,671.8,299.2,706.1,298.7z"
   id="path7" />
<path
   d="M502.7,681.4c-8.2,0.6-8.8-13.1-0.7-12.5c3.4,0.4,5.1-1.3,7.1-3.3c12.2-12.1,24.4-24.1,36.6-36.3c1-1,1.4-2.6,1.8-4  c1.2-8.3,14.2-6.1,13.3,1.9c-2.7,12.3-12-0.2-17.8,9.1c-8.4,11.1-32.2,26.1-34.5,38.2C509.3,678.4,506.5,681.3,502.7,681.4  L502.7,681.4z M557.6,626.8c0.2-4.8-7.5-4.7-7.3,0C550.3,631.2,557.7,631.1,557.6,626.8z"
   id="path8" />

<path
   d="M743.7,232.7c-13.7,0.5-12.2-21.1,0.3-20.4C757,212.4,757.2,233.3,743.7,232.7L743.7,232.7z"
   id="path10" />

</svg>
